<?xml version="1.0" standalone="no"?> <!DOCTYPE svg PUBLIC "-//W3C//DTD SVG 1.0//EN" "http://www.w3.org/TR/2001/REC-SVG-20010904/DTD/svg10.dtd" > <svg xmlns="http://www.w3.org/2000/svg" width="100%" height="100%">
<defs >
<font horiz-adv-x="898" ><font-face
    font-family="Mitra"
    units-per-em="2048"
    panose-1="2 0 5 3 0 0 0 0 0 0"
    ascent="1896"
    descent="-959"
    alphabetic="0" />
<missing-glyph horiz-adv-x="1024" d="M102 0V1092H922V0H102ZM204 102H820V990H204V102Z" />
<glyph unicode=" " glyph-name="space" horiz-adv-x="500" />
<glyph unicode="!" glyph-name="exclam" horiz-adv-x="600" d="M406 1264Q374 1142 354 875T334 397L260 368Q225 718 220 1193L406 1264ZM189 120Q189 152 220 184T283 216H284Q339 216 371 185T404 95Q404 64 372 31T308 -2Q251 -2 220 30T189 120Z" />
<glyph unicode="(" glyph-name="parenleft" horiz-adv-x="572" d="M238 431Q238 239 288 20T429 -373H356Q241 -194 178 20T114 435Q114 627 174 812T355 1202H431Q337 1046 288 836T238 431Z" />
<glyph unicode=")" glyph-name="parenright" horiz-adv-x="572" d="M346 431Q346 626 297 836T153 1202H229Q349 997 409 812T470 435Q470 234 407 20T228 -373H155Q246 -200 296 19T346 431Z" />
<glyph unicode="," glyph-name="comma" horiz-adv-x="433" d="M206 169Q266 169 305 115T345 -12Q345 -94 284 -170Q225 -244 93 -288V-252Q170 -225 223 -169T276 -34Q276 -20 270 -10T254 1Q246 1 224 -11Q202 -23 171 -23Q137 -23 115 3T93 67Q93 111 125 140T206
169Z" />
<glyph unicode="-" glyph-name="hyphen" horiz-adv-x="860" d="M769 396H113V503H769V396Z" />
<glyph unicode="." glyph-name="period" horiz-adv-x="420" d="M280 194Q321 194 349 166T378 96T350 27T280 -2Q240 -2 211 27T182 96T211 165T280 194Z" />
<glyph unicode=":" glyph-name="colon" horiz-adv-x="662" d="M456 194Q497 194 525 166T554 96T526 27T456 -2Q416 -2 387 27T358 96T387 165T456 194ZM456 722Q497 722 525 694T554 624T526 555T456 526Q416 526 387 555T358 624T387 693T456 722Z" />
<glyph unicode=";" glyph-name="semicolon" horiz-adv-x="481" d="M145 667T145 706T172 772T238 799T303 772T331 706T304 640T238 612T172 639ZM234 169Q294 169 333 115T372 -12Q372 -95 312 -170Q253 -244 120 -288V-252Q197 -226 249 -169T302 -34Q302 1
282 1Q274 1 251 -11T198 -23Q164 -23 142 3T120 67Q120 111 153 140T234 169Z" />
<glyph unicode="&lt;" glyph-name="less" horiz-adv-x="1117" d="M955 58L150 444V534L955 918V784L331 489L955 192V58Z" />
<glyph unicode="=" glyph-name="equal" horiz-adv-x="1043" d="M900 560H154V682H900V560ZM900 289H154V411H900V289Z" />
<glyph unicode="&gt;" glyph-name="greater" horiz-adv-x="1117" d="M966 444L160 58V192L786 489L160 784V918L966 534V444Z" />
<glyph unicode="?" glyph-name="question" horiz-adv-x="768" d="M168 796Q129 796 104 837T78 929Q78 1025 160 1098Q243 1172 399 1172Q556 1172 637 1070Q699 996 699 920Q699 844 672 779Q645 714 544 601Q445 490 417 430Q391 373 383 271H348Q356 379 376
446Q400 525 454 626Q511 733 527 787Q542 838 542 890Q542 988 489 1056T351 1124Q271 1124 230 1090Q188 1056 188 1019Q188 984 214 938Q239 894 239 866Q239 836 219 816T168 796ZM277 72Q277 111 304 138T372 166T439 139T467 72Q467 32 440 5T372 -23T305
4T277 72Z" />
<glyph unicode="@" glyph-name="at" horiz-adv-x="1594" d="M570 25Q499 25 459 87T419 239Q419 345 498 496Q577 646 709 745Q806 814 884 814Q1004 814 1028 698L1057 791L1189 809L1091 472Q1012 202 1012 163Q1012 129 1028 108T1075 86Q1138 86 1224 148Q1309
209 1371 351T1434 635Q1434 791 1361 911T1168 1093Q1040 1159 865 1159Q691 1159 524 1055T259 757T161 360Q161 151 249 -4T488 -240Q645 -323 844 -323Q962 -323 1067 -286T1254 -183T1398 -34T1501 146H1551Q1476 -87 1276 -230T819 -373Q602 -373 434 -272T178
-8Q83 167 83 382Q83 615 195 803T480 1093Q668 1202 862 1202Q1060 1202 1199 1128T1411 918Q1485 779 1485 624Q1485 468 1416 316Q1348 166 1240 96Q1134 27 1012 27Q889 27 889 141Q889 190 904 266Q779 114 704 70Q628 25 570 25ZM999 638Q999 775 884 775Q831
775 750 693Q668 610 610 466Q551 321 551 258Q551 201 578 165T655 128Q699 128 752 165Q815 209 873 291T962 462Q999 566 999 638Z" />
<glyph unicode="[" glyph-name="bracketleft" horiz-adv-x="646" d="M562 -372H190V1202H562V1105H329V-276H562V-372Z" />
<glyph unicode="\" glyph-name="backslash" horiz-adv-x="607" d="M583 -378H464L57 935H179L583 -378Z" />
<glyph unicode="]" glyph-name="bracketright" horiz-adv-x="646" d="M211 -276H444V1105H211V1202H583V-372H211V-276Z" />
<glyph unicode="^" glyph-name="asciicircum" horiz-adv-x="982" d="M894 451H763L492 862L218 450H86L450 980H532L894 451Z" />
<glyph unicode="_" glyph-name="underscore" horiz-adv-x="921" d="M933 -247H-12V-140H933V-247Z" />
<glyph unicode="`" glyph-name="grave" horiz-adv-x="212" d="M120 1002Q155 921 176 851Q179 832 179 818Q179 804 176 804Q168 804 107 919T46 1047T50 1060Q68 1060 120 1002Z" />
<glyph unicode="{" glyph-name="braceleft" horiz-adv-x="830" d="M558 136Q558 93 539 -11T519 -155Q519 -211 566 -266Q612 -319 710 -345V-373Q581 -355 487 -265T393 -49Q393 15 412 94Q432 177 432 227T380 332T239 397V432Q330 444 380 496Q432 550 432
602Q432 653 412 735Q393 812 393 876Q393 993 481 1088Q568 1182 710 1202V1172Q613 1148 566 1095T519 984Q519 945 538 840T558 692Q558 619 496 541Q433 461 308 416Q430 372 494 290Q558 208 558 136Z" />
<glyph unicode="|" glyph-name="bar" horiz-adv-x="347" d="M206 1202V-373H136V1202H206Z" />
<glyph unicode="}" glyph-name="braceright" horiz-adv-x="830" d="M340 984Q340 1057 286 1104T150 1172V1202Q278 1184 372 1093T467 876Q467 839 448 738T429 602Q429 536 487 489T621 432V397Q532 387 480 332Q429 278 429 227Q429 193 448 90T467 -49Q467
-161 378 -258Q290 -353 150 -373V-345Q246 -320 294 -266Q340 -214 340 -156Q340 -95 321 -16T302 136Q302 207 365 288Q427 368 551 412Q430 457 366 539T302 692Q302 765 321 845T340 984Z" />
</font>
</defs>
</svg>
